<svg id="Layer_1" data-name="Layer 1" xmlns="http://www.w3.org/2000/svg" viewBox="0 0 979.85 446.72"><defs><style>.cls-1{font-size:61.61px;}.cls-1,.cls-7{font-family:TimesNewRomanPSMT, Times New Roman;}.cls-2{letter-spacing:-0.02em;}.cls-3{letter-spacing:-0.07em;}.cls-4{letter-spacing:-0.04em;}.cls-5{letter-spacing:0em;}.cls-6{letter-spacing:-0.06em;}.cls-7{font-size:144.06px;}.cls-8{letter-spacing:-0.02em;}.cls-9{letter-spacing:0em;}.cls-10{fill:#ce000c;}.cls-11{fill:none;stroke:#ce000c;stroke-miterlimit:10;stroke-width:2px;}</style></defs><text class="cls-1" transform="translate(79.63 353.9)">Advocate, Legal Consultant,<tspan class="cls-2" x="704.86" y="0"> </tspan><tspan class="cls-3" x="719.15" y="0">T</tspan><tspan x="752.48" y="0">ax</tspan><tspan x="-79.32" y="73.93">Liquidato</tspan><tspan class="cls-4" x="160.21" y="73.93">r</tspan><tspan class="cls-5" x="178.26" y="73.93">, Receiver and</tspan><tspan class="cls-6" x="532.32" y="73.93"> </tspan><tspan x="544.32" y="73.93">Administrator</tspan></text><text class="cls-7" transform="translate(283.9 275.93) scale(1.04 1)">Law O<tspan class="cls-8" x="396.02" y="0">f</tspan><tspan class="cls-9" x="441.39" y="0">fice</tspan></text><path class="cls-10" d="M171.27,324.46c1.66-1.27,3.33-3.64,5-3.64,32.82.1,33.8-14.87,34-37.72.53-49.55-.3-99.12.54-148.67.49-28.57,10.09-53.79,35.69-69.84,29.66-18.6,64.1-8.18,81.63,24.09,19.35,35.64,13.27,89.46-13.51,120-17.72,20.19-40.29,26.14-67.39,22.19,0,5.31,0,10.27,0,15.23,0,15.27-.17,30.54.05,45.81.27,19.1,8.93,27.82,28.05,28.7,2.42.11,4.9-.25,7.22.24a4.14,4.14,0,0,1,2.71,2.93c0,1-1.51,2.33-2.65,3-.79.48-2.09.16-3.16.16q-51.51,0-103,0a34.07,34.07,0,0,1-3.89-.45Z" transform="translate(-62.15 -50.17)"/><path class="cls-10" d="M118.05,60.39H230.38l1.16,2.34c-2,1.16-3.8,2.94-5.91,3.36-6,1.21-12.29,1.2-18.1,2.91-7.8,2.3-12.56,8-13.29,16.36-.63,7.19-1.39,14.4-1.41,21.61-.13,42.59.11,85.18-.14,127.77-.12,20.65-1.29,41.22-11.09,60.19-13.88,26.89-39.66,39.82-69.44,34.7C94,326.51,81.5,308.93,86.48,293.74c2.59-7.92,8.7-11.41,16.13-12.69,7-1.21,12.87,1.78,16.53,7.63,3.81,6.09,6.67,12.77,10,19.16,2.65,5.05,5.82,11.47,12.21,9.23,4.75-1.68,9.44-6.74,11.67-11.47,2.38-5.05,2.45-11.48,2.46-17.31q.23-92.82.08-185.63c0-2.67-.18-5.35-.25-8-.48-19.12-6.69-26.77-30.77-28.38C117.89,65.82,117.87,66.06,118.05,60.39Z" transform="translate(-62.15 -50.17)"/><path class="cls-10" d="M510,115.26c-2.61,2-3.5,3.23-4.48,3.3-11.58.89-17.66,8.64-23.29,17.57-9.4,14.92-19.38,29.48-28.86,44.36-.94,1.48-1,5.16,0,6,8.18,6.7,16,14.51,25.32,19,13.68,6.58,23.46,1.35,35.89-15,0,2.21.57,4.61-.09,6.6-9.46,28.38-36.54,37.71-61.63,21-6.82-4.54-12.8-10.36-19.48-15.85-12.1,10.52-24.83,19.67-41,22.72-13.32,2.51-26.23,1.83-38.31-4.68-20.29-10.93-24.86-33.67-11.61-55.42,8.39-13.77,21.07-22.56,34.49-30.59,3-1.78,6-3.51,8.55-5-2.89-11.46-6.84-22.34-8.25-33.54C372.54,57.47,412.08,43.5,435,53.1c20.24,8.48,24.69,35.57,7.83,51.5-6.73,6.35-15.1,11-22.79,16.28-2.17,1.49-4.58,2.63-8.15,4.65l33.18,52c11-12.47,20-24.44,22.75-39.92,1.42-8-.54-15-8.94-18.59a4.24,4.24,0,0,1-1.68-1.58c-.24-.37,0-1,0-2.14ZM390.22,137.8c-17.67,6.78-30.67,24.83-29.88,41.86.67,14.45,9.93,27.06,22.73,31,13.87,4.21,34.46-3.58,43.42-16Zm18.44-19.13c7.22-5.12,13.94-9.11,19.7-14.18A30.36,30.36,0,0,0,439.2,80.41c-.18-12.34-7.67-21.19-18.91-21.78S399,67.55,398,79.59C397,93.28,403,105,408.66,118.67Z" transform="translate(-62.15 -50.17)"/><text class="cls-7" transform="translate(448.15 161.24) scale(1.07 1)">Partners</text><line class="cls-11" x1="1.82" y1="296.26" x2="979.85" y2="296.26"/></svg>